<?xml version="1.0" encoding="utf-8"?>
<!-- Generator: Adobe Illustrator 16.0.0, SVG Export Plug-In . SVG Version: 6.00 Build 0)  -->
<!DOCTYPE svg PUBLIC "-//W3C//DTD SVG 1.1//EN" "http://www.w3.org/Graphics/SVG/1.1/DTD/svg11.dtd">
<svg version="1.1" xmlns="http://www.w3.org/2000/svg" xmlns:xlink="http://www.w3.org/1999/xlink" x="0px" y="0px" width="864px"
	 height="864px" viewBox="0 0 864 864" enable-background="new 0 0 864 864" xml:space="preserve">
<g id="Layer_1">
	<path fill-rule="evenodd" clip-rule="evenodd" fill="#EC008C" d="M783.189,462.026c-23.097,10.224-46.5,19.889-69.258,30.89
		c-16.689,8.068-16.311,8.85-12.256,25.012c48.181-2.565,95.896-5.105,143.61-7.646c0.067,1.452,0.134,2.902,0.201,4.353
		c-13.39,0-26.879-1.055-40.146,0.22c-28.074,2.694-56.192,5.65-83.981,10.339c-19.941,3.365-23.465,9.555-24.696,32.488
		c41.771,3.079,83.274,8.2,122.563,24.564c-13.135-2.85-26.146-6.77-39.432-8.312c-24.203-2.811-48.556-4.42-72.876-6.083
		c-8.624-0.589-14.031,3.562-18.205,11.974c-18.891,38.072-48.699,62.088-91.957,66.454c-7.033,0.71-14.457-2.45-26.042-4.643
		c4.078,8.813,5.372,16.911,10.12,20.95c20.54,17.481,15.232,38.791,9.98,59.762c-12.969,51.781-70.044,93.332-123.024,91.862
		c-30.535-0.846-58.926-5.527-80.803-28.675c-19.829-20.979-26.764-47.527-28.302-75.379c-1.125-20.401-0.007-40.919-0.218-61.381
		c-0.051-4.937-1.401-9.858-2.281-15.616c-17.372,2.47-33.453,3.991-49.186,7.214c-15.35,3.145-30.341,8.027-45.49,12.147
		c-0.306-1.082-0.611-2.162-0.918-3.243c28.615-8.525,57.229-17.05,86.303-25.712c0.02,0.188,0.101-0.972-0.238-1.99
		c-9.115-27.38-11.203-28.45-40.355-24.482c-30.916,4.207-61.892,7.979-93.135,11.27c18.661-3.86,37.209-8.436,56.011-11.391
		c20.742-3.26,41.741-4.852,62.559-7.679c2.667-0.361,6.545-3.432,7.073-5.855c1.996-9.156-10.525-24.995-20.021-25.265
		c-16.005-0.454-32.032-0.107-48.05-0.098c-3.752,0.002-7.502,0-11.308-1.684c17.983-2.04,35.968-4.081,53.951-6.122
		c0.582-0.947,1.164-1.896,1.747-2.844c-11.229-7.704-21.587-17.43-33.857-22.713c-30.833-13.277-62.759-23.991-93.806-36.801
		c-23.809-9.823-49.143-18.389-63.3-42.443c-16.909-28.73-20.712-58.637-5.168-89.453c0.899-1.784,2.012-3.536,2.496-5.438
		c0.687-2.693,0.883-5.511,1.328-8.546c-11.906-1.328-24.122-1.587-35.814-4.19c-46.123-10.271-62.998-34.39-54.029-84.521
		c6.43-35.941,28.155-61.748,59.361-79.44c36.012-20.416,73.443-5.971,84.975,39.33c4.858,19.085,9.62,38.195,15.196,60.355
		c32.534-13.695,62.901-26.595,93.378-39.231c8.375-3.473,16.873-7.042,25.663-9.044c32.851-7.484,65.722-14.993,98.832-21.185
		c20.638-3.859,41.729-5.26,62.585-8.014c5.05-0.667,10.308-1.577,14.888-3.654c16.542-7.507,31.853-7.524,49.093,0.356
		c20.982,9.591,43.661,15.468,65.099,22.777c6.062-18.955,10.257-37.117,17.766-53.787c5.065-11.248,13.286-22.205,22.747-30.126
		c25.611-21.442,49.55-14.38,75.467,5.965c18.076,14.19,31.074,33.283,40.126,54.414c10.291,24.026,1.922,54.207-19.052,71.365
		c-14.084,11.522-30.815,17.774-49.445,17.865c4.047,11.473,8.149,22.061,11.519,32.877c7.179,23.054-0.326,44.291-13.432,61.918
		c-13.089,17.607-29.539,33.208-46.524,47.263c-12.276,10.159-8.358,18.055-1.213,28.26c23.615,1.318,42.141,12.249,54.418,33.929
		c1.298,2.291,7.944,3.538,11.147,2.446c23.918-8.146,47.577-17.049,71.372-25.561C778.926,461.691,781.313,462.114,783.189,462.026
		z"/>
	<g>
		<path fill-rule="evenodd" clip-rule="evenodd" d="M353.178,168.427c-50.168,6.479-78.406,43.094-111.435,78.757
			c1.579-7.972,1.663-13.414,3.716-17.968c16.984-37.665,45.543-64.987,80.176-86C341.775,133.423,353.181,144.128,353.178,168.427z
			"/>
		<path fill-rule="evenodd" clip-rule="evenodd" d="M441.113,170.041c2.509-8.352,3.964-16.037,7.134-22.933
			c2.966-6.453,8.51-9.683,16.55-8.922c41.509,3.924,77.964,19.441,109.45,46.671c1.384,1.197,1.886,3.413,4.388,8.182
			C534.783,168.504,490.355,161.696,441.113,170.041z"/>
	</g>
	<g>
		<path fill-rule="evenodd" clip-rule="evenodd" fill="#FFF200" d="M398.466,351.781C385.705,336.198,378.924,337.764,366,344
			c-11.414,5.508-11.09,21.23-3.115,38.091c-18.459,15.754-64.876,7.277-82.979-13.313c-26.613-30.266-32.547-86.571-4.259-114.983
			c27.344-27.465,64.881-31.954,98.719-8.668C409.644,269.402,415.307,316.542,398.466,351.781z"/>
		<path fill-rule="evenodd" clip-rule="evenodd" fill="#FFF200" d="M586.973,333.266C558,301,537,345,563.995,363.521
			c-11.249,0-20.532,2.48-27.549-0.455c-23.148-9.685-44.836-22.902-60.394-42.887c-22.744-29.216-22.486-82.42-0.198-105.357
			c23.658-24.348,54.198-24.452,76.99,0.855c17.364,19.282,33.907,39.516,35.511,66.847C589.303,298.664,592,313,586.973,333.266z"
			/>
	</g>
	<g>
		<path fill-rule="evenodd" clip-rule="evenodd" fill="#F9C3D2" d="M378.153,232.615c25.062-4.39,50.123-8.779,78.128-13.684
			c-11.726,34.706-5.503,66.027,6.452,97.604c-17.349-7.276-19.364-5.148-22.42,12.98c-7.079,41.995-3.03,83.117,7.023,124.053
			c1.677,6.829,0.974,12.189-7.628,15.794c-14.227,5.963-28.489,12.793-40.976,21.718c-17.155,12.263-28.367,13.69-45.058-3.233
			c-7.667-7.773-13.691-17.167-20.935-26.433c9.014-7.855,16.705-14.561,24.396-21.266c-0.263-0.984-0.525-1.968-0.788-2.952
			c-38.771,14.646-77.089,13.885-115.038-2.021c1.152,15.101,38.545,29.724,79.75,31.595c7.896,21.788,20.073,40.784,43.698,51.312
			c-7.425,9.929-14.017,18.742-21.314,28.501c-22.946-23.106-49.027-40.151-77.815-52.938
			c-30.039-13.341-60.064-26.768-90.527-39.094c-49.686-20.105-51.185-67.642-33.335-106.026
			c4.462-9.596,10.646-18.39,16.937-29.079c-10.266,0.929-19.528,1.249-28.612,2.691c-20.789,3.301-39.844-1.54-58.778-9.86
			c-11.759-5.168-17.037-14.273-19.012-25.505c-7.577-43.105,26.048-90.31,58.033-98.318c15.767-3.948,28.054-0.538,37.698,12.116
			c13.238,17.369,16.359,38.441,22.274,58.536c3.549,12.059,7.566,23.98,11.531,36.465c13.147-4.949,24.413-9.562,35.932-13.419
			c10.985-3.678,22.235-6.567,34.628-10.169c-17.405,74.474,15.235,110.585,51.419,124.825
			c33.962,13.366,80.599-5.455,98.067-29.212c15.398-20.94,18.337-44.721,14.865-70.435c-3.601-26.67-18.165-45.318-39.378-60.444
			C377.631,235.35,377.893,233.982,378.153,232.615z M153.447,285.125c-5.865-16.686-11.769-34.734-18.577-52.436
			c-4.977-12.937-19.375-17.763-31.456-11.798c-15.846,7.826-23.88,20.994-27.869,37.751c-2.926,12.297-0.831,24.011,7.744,31.823
			c9.008,8.208,21.181,11.861,34.137,7.107C128.749,293.418,140.22,289.675,153.447,285.125z"/>
		<path fill-rule="evenodd" clip-rule="evenodd" fill="#F9C3D2" d="M556.192,375.939c47.804-28.612,61.357-77.107,26.351-143.995
			c6.66,2.141,12.161,3.457,17.271,5.674c5.438,2.359,10.508,5.571,13.051,6.952c10.947-27.598,18.73-56.888,33.578-82.001
			c15.731-26.608,27.465-28.901,52.15-14.655c28.354,16.36,49.446,52.486,38.927,84.727c-5.794,17.756-19.926,26.069-36.508,28.186
			c-17.252,2.203-34.976,0.673-52.49,0.907c-2.156,0.028-4.302,0.868-8.467,1.767c5.682,4.876,9.931,8.613,14.275,12.236
			c27.688,23.104,32.121,54.5,14.169,85.458c-11.64,20.075-28.21,34.369-46.34,47.644c-6.826,4.998-12.062,5.947-19.834-0.493
			C588.329,396.748,572.585,387.261,556.192,375.939z M636.771,236.401c1.201,0.731,2.404,1.463,3.606,2.195
			c4.711-10.382,11.651-13.298,22.225-8.949c6.466,2.66,14.004,5.086,20.665,4.294c8.489-1.011,19.882-3.1,23.912-8.94
			c4.049-5.866,1.63-17.108,0.028-25.613c-0.939-4.988-5.112-9.989-9.057-13.669c-10.502-9.794-27.196-15.792-36.402,0.614
			C652.633,202.578,645.034,219.676,636.771,236.401z"/>
		<path fill-rule="evenodd" clip-rule="evenodd" fill="#F9C3D2" d="M450.477,321.195c53.875,31.114,101.938,66.708,146.494,111.23
			c-45.811-1.951-89.009,3.113-131.296,19.709C448.723,410.312,449.114,366.752,450.477,321.195z"/>
		<path fill-rule="evenodd" clip-rule="evenodd" fill="#F9C3D2" d="M448.286,676.119c11.567-2.571,22.201-5.771,33.065-7.135
			c12.653-1.589,12.727,10.725,16.397,17.953c2.909,5.729-0.042,10.113-7.42,11.729
			C464.974,704.223,452.119,699.453,448.286,676.119z"/>
	</g>
	<g>
		<path fill-rule="evenodd" clip-rule="evenodd" fill="#FCE3EE" d="M379.452,633.872c12.317-1.044,24.635-2.089,38.09-3.23
			c-4.528-14.237-14.347-12.247-23.133-11.853c-6.284,0.281-12.91,2.993-18.685,1.639c-5.13-1.203-10.997-5.596-13.485-10.224
			c-3.539-6.58-1.266-11.444,8.185-9.879c5.395,0.893,11.133-0.289,18.799-0.628c-7.293-15.103-20.42-8.892-30.281-14.47
			c0.679-7.089,1.425-14.876,2.241-23.393c9.605,1.366,18.747,2.995,27.959,3.76c2.518,0.208,5.252-2.175,7.888-3.368
			c-1.299-2.85-2.098-7.738-3.982-8.201c-8.71-2.139-17.723-3.049-27.83-4.581c17.805-38.058,47.94-61.307,86.579-76.352
			c17.422,24.203,38.458,43.916,64.248,58.247c7.252,4.03,14.283,8.81,22.02,11.522c8.42,2.952,9.623,8.497,8.57,15.7
			c-11.462,78.465-77.402,107.294-141.753,90.762c-9.306-2.391-17.658-8.491-26.452-12.875
			C378.772,635.591,379.111,634.731,379.452,633.872z"/>
		<path fill-rule="evenodd" clip-rule="evenodd" fill="#FCE3EE" d="M544.267,625.758c2.61,4.702,4.997,8.613,7.014,12.705
			c6.965,14.133,13.046,28.771,20.987,42.326c4.309,7.351,6.521,13.526,4.599,22.15c-10.144,45.541-40.908,69.554-83.429,82.137
			c-20.721,6.132-41.883,8.477-62.1,1.159c-27.454-9.938-41.872-32.942-47.817-60.006c-4.638-21.115-5.147-43.137-7.37-63.645
			c16.569,3.252,31.294,5.841,45.866,9.112c9.235,2.073,16.69,6.573,19.776,16.716c7.046,23.158,21.487,34.653,44.782,30.804
			c25.085-4.145,49.515-12.256,77.506-19.482c-6.181-5.616-8.864-10.13-12.345-10.865c-16.881-3.562-18.109-17.496-22.015-30.266
			C525.207,643.832,533.238,635.216,544.267,625.758z"/>
		<path fill-rule="evenodd" clip-rule="evenodd" fill="#FCE3EE" d="M641.283,553.129c9.754-3.271,19.507-6.543,30.094-10.094
			c0.916,8.818,0.792,15.213-9.275,17.927c-5.34,1.44-10.752,5.478-3.388,12.146c1.314,1.189,1.597,4.719,0.942,6.702
			c-12.22,37.042-51.914,57.577-89.271,46.098c-5.61-1.724-10.584-5.592-16.217-7.15c-8.643-2.391-8.228-8.569-7.321-14.938
			c2.345-16.47,4.801-32.932,7.723-49.307c0.63-3.529,2.642-7.56,5.309-9.863c24.499-21.156,48.971-42.269,66.71-69.888
			c1.444-2.248,3.685-4.547,6.084-5.524c11.151-4.54,42.139,12.769,43.783,24.838c0.416,3.062-2.444,7.158-4.851,9.83
			c-1.955,2.171-6.488,2.22-8.068,4.478c-2.089,2.982-2.413,7.202-3.495,10.891c3.227-0.197,6.562,0.036,9.647-0.729
			c2.492-0.617,4.686-2.44,7.996-4.276c3.098,11.484-3.046,14.846-11.281,17.415c-7.045,2.198-14.232,4.562-20.535,8.256
			c-3.266,1.914-4.751,6.866-7.041,10.446C639.646,551.3,640.465,552.215,641.283,553.129z"/>
		<path fill-rule="evenodd" clip-rule="evenodd" fill="#FCE3EE" d="M90.492,267.548c-0.127-13.051,10.712-27.407,21.12-27.973
			c8.551-0.465,24.704,18.94,24.125,28.985c-0.351,6.086-16.214,14.317-27.903,14.479C95.411,283.211,90.602,278.916,90.492,267.548
			z"/>
		<path fill-rule="evenodd" clip-rule="evenodd" fill="#FCE3EE" d="M693.678,218.98c-11.688-1.56-22.624-3.021-35.118-4.69
			c4.487-11.231,8.429-19.397,19.162-17.961C688.77,197.809,693.34,205.806,693.678,218.98z"/>
	</g>
</g>
<g id="Layer_2">
	<path d="M393,552c4.903,0.98,6,13-2,14s-37-7-52-7s-80-3-80-3s61-8,83-7S388,551,393,552z"/>
	<path d="M388,598c-0.499,7.984-35-3-49-2s-112,10-126,11c28-10,107-18,122-18S389,582,388,598z"/>
	<path d="M417,631c-2.038,7.338-43-6-65,0s-87,19-93,21c13-8,69-27,99-32S422,613,417,631z"/>
	<path d="M660,518c4.426,7.376,33-16,48-23s72-34,72-34s-73,21-89,30S654,508,660,518z"/>
	<path d="M639,549c4.404,8.81,40-13,54-17s82-16,100-17s54-4,54-4s-65,0-85,2s-55,4-86,15S635,541,639,549z"/>
	<path d="M655,566c0,12,28,2,40,2s123,14,123,14s-77-24-116-25S655,558,655,566z"/>
</g>
</svg>
