<svg id="barcode-p2" jsbarcode-format="upc" jsbarcode-value="00000000002" jsbarcode-textmargin="0" jsbarcode-fontoptions="bold" width="242px" height="140px" x="0px" y="0px" viewBox="0 0 242 140" xmlns="http://www.w3.org/2000/svg" version="1.1" style="transform: translate(0px, 0px);"><rect x="0" y="0" width="242" height="140" style="fill:#ffffff;"></rect><g transform="translate(10, 10)" style="fill:#000000;"><text style="font:bold 20px monospace" text-anchor="start" x="0" y="120">0</text></g><g transform="translate(26, 10)" style="fill:#000000;"><rect x="0" y="0" width="2" height="110"></rect><rect x="4" y="0" width="2" height="110"></rect><rect x="12" y="0" width="4" height="110"></rect><rect x="18" y="0" width="2" height="110"></rect><text style="font:bold 20px monospace" text-anchor="middle" x="10" y="130"></text></g><g transform="translate(46, 10)" style="fill:#000000;"><rect x="6" y="0" width="4" height="100"></rect><rect x="12" y="0" width="2" height="100"></rect><rect x="20" y="0" width="4" height="100"></rect><rect x="26" y="0" width="2" height="100"></rect><rect x="34" y="0" width="4" height="100"></rect><rect x="40" y="0" width="2" height="100"></rect><rect x="48" y="0" width="4" height="100"></rect><rect x="54" y="0" width="2" height="100"></rect><rect x="62" y="0" width="4" height="100"></rect><rect x="68" y="0" width="2" height="100"></rect><text style="font:bold 20px monospace" text-anchor="middle" x="35" y="120">00000</text></g><g transform="translate(116, 10)" style="fill:#000000;"><rect x="2" y="0" width="2" height="110"></rect><rect x="6" y="0" width="2" height="110"></rect><text style="font:bold 20px monospace" text-anchor="middle" x="5" y="130"></text></g><g transform="translate(126, 10)" style="fill:#000000;"><rect x="0" y="0" width="6" height="100"></rect><rect x="10" y="0" width="2" height="100"></rect><rect x="14" y="0" width="6" height="100"></rect><rect x="24" y="0" width="2" height="100"></rect><rect x="28" y="0" width="6" height="100"></rect><rect x="38" y="0" width="2" height="100"></rect><rect x="42" y="0" width="6" height="100"></rect><rect x="52" y="0" width="2" height="100"></rect><rect x="56" y="0" width="4" height="100"></rect><rect x="62" y="0" width="4" height="100"></rect><text style="font:bold 20px monospace" text-anchor="middle" x="35" y="120">00002</text></g><g transform="translate(196, 10)" style="fill:#000000;"><rect x="0" y="0" width="2" height="110"></rect><rect x="4" y="0" width="6" height="110"></rect><rect x="14" y="0" width="2" height="110"></rect><rect x="18" y="0" width="2" height="110"></rect><text style="font:bold 20px monospace" text-anchor="middle" x="10" y="130"></text></g><g transform="translate(216, 10)" style="fill:#000000;"><text style="font:bold 20px monospace" text-anchor="end" x="15" y="120">4</text></g></svg>